<svg width="204" height="204" viewBox="0 0 204 204" fill="none" xmlns="http://www.w3.org/2000/svg">
  <path opacity="0.2" d="M184.935 100.384C185.737 146.282 149.174 184.139 103.271 184.942C57.3889 185.74 19.5287 149.178 18.7302 103.282C17.9221 57.3809 54.4811 19.5189 100.371 18.7192C146.271 17.9168 184.13 54.4847 184.932 100.385L184.935 100.384Z" fill="#F7931A"/>
  <path d="M96.1974 65.2066L96.3755 75.4742C98.0772 75.4105 99.7903 75.3477 101.465 75.3187L101.287 65.1188L107.665 65.0061L107.849 75.4825C116.092 76.06 122.656 78.478 123.515 86.0171L123.513 86.0176C124.151 91.5347 121.897 94.8922 118.234 96.8428C124.346 98.1996 128.221 101.751 127.61 109.871C126.857 119.952 119.399 122.784 108.689 123.586L108.871 134.163L102.495 134.275L102.316 123.84C100.663 123.87 98.9695 123.885 97.2216 123.879L97.4031 134.363L91.034 134.473L90.8453 123.876C89.3552 123.892 87.8349 123.892 86.2907 123.918L77.9911 124.064L79.1247 116.424C79.1445 116.424 83.8367 116.415 83.7601 116.345C85.5646 116.31 86.0196 115.005 86.1188 114.19L85.8304 97.4705L86.5027 97.4592C86.2388 97.4278 86.0058 97.4237 85.8275 97.4258L85.6182 85.4913C85.3527 84.2013 84.4845 82.7173 81.9022 82.7614C81.971 82.674 77.2868 82.8451 77.2711 82.8457L77.1506 76.0345L85.9455 75.8839L85.9473 75.9168C87.2691 75.8929 88.6243 75.8435 90.0042 75.7912L89.8244 65.3178L96.1974 65.2066ZM97.2327 116.163C101.556 116.085 115.128 116.748 114.988 108.829L114.989 108.829C114.841 100.572 101.312 102.05 96.9894 102.125L97.2327 116.163ZM96.8752 95.699C100.477 95.6355 111.798 96.2791 111.675 89.0755C111.545 81.5614 100.255 82.9036 96.6534 82.9671L96.8752 95.699Z" fill="#F7931A"/>
</svg>